<?xml version="1.0"?>
<svg width="300" height="300" xmlns="http://www.w3.org/2000/svg" xmlns:svg="http://www.w3.org/2000/svg" version="1.1">
 <!-- Created with SVG-edit - https://github.com/SVG-Edit/svgedit-->
 <g class="layer">
  <g id="svg_1">
   <path d="m155.28,262.14c-1.28,-1.61 -2.57,-0.64 -2.57,-1.61c-7.73,1.93 -22.18,-3.21 -28.28,-2.57c1.28,-1.93 -1.93,-1.63 -1.93,-2.91c-1.28,1.95 -2.57,0 -4.5,0.64c-1.93,-4.82 -9.66,-1.28 -10.62,-7.41c-4.5,0 -6.08,-2.57 -10.6,-5.14c0.32,-0.32 0.64,-0.32 0.96,-0.64c-2.25,-0.32 -2.25,-1.63 -4.18,-1.63l0.64,-1.28c-3.53,-0.64 -4.82,-6.12 -9.96,-8.05c-1.61,-0.32 -5.14,-5.8 -7.07,-7.09c-0.96,-0.64 -2.57,-0.64 -0.32,-0.96c-0.32,-0.32 -0.32,-0.96 0,-1.28c-2.25,-0.64 -2.57,-2.59 -5.48,-3.55c-0.32,-0.96 0.64,-1.61 0,-2.25c-0.64,-0.32 -1.61,0.32 -2.25,0c-0.32,5.8 6.12,6.44 8.05,11.26c-0.64,-0.64 -1.61,-2.57 -2.25,-1.28c-0.32,0.96 2.57,4.52 2.57,2.59c-0.96,0.64 -1.28,-0.98 -0.64,-1.3c0.96,1.63 2.89,1.3 2.89,2.59c-0.96,0.96 -2.25,-0.96 -1.93,0.64c2.89,1.61 2.57,3.21 4.18,5.48c-1.28,-1.63 -1.61,1.28 -2.89,0c-0.32,-4.84 -5.78,-3.87 -5.78,-8.71c-0.64,-1.61 -1.3,-0.32 -2.27,-0.96c1.3,-1.28 -3.85,-5.78 -3.85,-4.18c-1.61,-1.93 -0.64,-2.59 -0.96,-3.87c-1.26,-0.32 -0.32,1.28 -1.26,0.32c1.26,-2.25 -1.63,-5.16 -3.55,-7.41l1.28,-0.64c-2.25,-1.28 -2.57,-3.87 -4.18,-6.76c-1.93,2.89 3.85,9.33 2.89,10.64c0,0.32 2.25,2.89 2.91,4.18c2.57,4.52 4.48,10 8.03,12.57c-0.66,-0.32 -0.34,-2.25 0.64,-1.28c0,0.96 -0.64,1.93 -0.64,2.89c1.93,1.95 3.53,3.55 5.46,5.48c-4.18,-2.57 -8.37,-5.16 -11.26,-9.01c1.61,-0.32 3.21,2.57 4.5,2.25c-3.21,-2.57 -2.25,-3.53 -3.53,-6.76c-1.28,-0.96 0.32,1.28 -0.96,1.61c-4.18,-3.85 -7.39,-6.1 -9.31,-9.66c0.32,-0.32 0.64,-0.64 0.64,-1.28c-0.32,-0.32 -0.32,-0.32 -0.64,-0.64c1.93,1.93 2.57,3.53 4.82,3.85c-0.96,-0.96 0,-1.28 -1.28,-2.25c-0.64,-1.28 -1.61,0.64 -2.25,-0.32c0.64,-0.96 0,-2.27 0,-3.23c-0.64,0 -1.28,0 -1.61,-0.96c-0.64,-0.32 -0.96,0 -1.28,0.64c-0.32,-0.32 -0.32,-0.96 -0.64,-1.28c0,0 0,-0.32 0,-0.32c-0.32,-0.32 -0.64,-0.96 -0.96,-1.28c-2.57,-6.76 -4.18,-15.8 -7.71,-21.58c0.96,-3.87 -0.64,-11.6 -1.61,-13.53c0.96,-1.61 0.32,-9.01 -0.32,-10.32c-1.61,0.64 0.32,4.2 -1.3,5.16c-1.59,-7.09 0.98,-15.14 0.34,-21.58c0.64,0 1.28,0 1.28,-0.32c-0.96,-0.96 0.64,-2.89 0.32,-5.16c1.28,-2.89 -2.89,4.2 -2.89,7.09c-0.32,0.64 -1.61,0 -1.28,1.63c0,2.25 0.64,6.76 -0.64,9.98c-0.64,0 -0.64,-0.64 -1.28,-0.32c-0.32,1.61 -0.64,3.53 -0.96,5.16c-0.32,-0.66 -0.64,-1.63 -0.64,-1.95c-1.61,-8.05 0,-17.38 -0.64,-24.15c1.28,0 1.28,-1.93 2.25,-2.59c-0.32,2.59 -0.96,5.8 0.64,6.44c1.28,-12.55 3.85,-26.4 9.64,-39.93c4.18,-10 10.28,-19.97 17.69,-28.02c0.62,0.96 -0.34,3.21 0,4.18c6.42,-6.76 10.6,-14.81 17.67,-19.31c0.32,1.61 -2.89,2.89 -2.89,4.18c2.89,-2.89 3.85,-1.93 7.07,-2.89c0.96,-1.28 -1.28,0 -1.61,-1.28c1.93,-1.3 3.21,-2.91 4.5,-3.87c0,0.32 -0.32,0.32 -0.32,0.64c3.53,-0.96 3.85,-2.89 6.42,-3.53c-0.32,-0.34 -0.96,-0.66 -1.93,-0.34c0.64,-0.32 1.61,-0.96 2.57,-1.28c-0.32,0 -0.32,0.32 -0.64,0.32c1.93,-0.96 0.32,0.32 0.32,0.96c0.32,0 0.64,-0.32 0.64,-0.32c-1.93,1.3 -3.21,1.95 -3.85,4.2c0.96,-0.64 1.28,0 2.57,-0.96c1.28,-0.64 -0.32,-1.61 0.64,-2.27c0.96,0.66 2.25,0.34 3.23,0.34c0,-0.64 0.3,-1.3 0.96,-1.63c0.32,-0.64 0,-0.96 -0.32,-0.96c0.32,-0.32 0.64,-0.32 1.28,-0.64c0,0 0.3,0 0.3,0.32c5.48,-2.57 11.58,-4.82 17.36,-6.76c3.53,-0.32 8.03,-0.32 9.96,-2.57c-0.64,0 -1.28,0.32 -1.61,0c0.32,0 0.96,-0.32 1.28,-0.32c0.64,0.64 1.61,0 0.64,1.28c0.32,0 0.32,0 0.64,-0.32c0,0.32 0,0.32 0.32,0.64c0.32,0 0.64,-0.32 0.96,-0.96c0.32,0 0.64,0 0.96,-0.32c0,0 -0.32,0.32 -0.32,0.32c2.57,-0.64 4.82,-0.32 8.35,-0.96c0,-0.32 0,-0.64 0,-0.96c0.64,0 0.96,-0.32 1.61,-0.32c0,0 0,0.32 0,0.32c1.28,-0.64 2.59,0.64 2.59,0c0.32,0 0.32,0 0.64,0c0,0.64 -0.32,0.96 -0.32,1.28c1.61,0 2.57,0 3.21,-0.96c-0.32,-0.32 -0.64,-0.32 -0.96,-0.32c0.64,0 1.28,-0.32 1.93,-0.64c0.96,0.32 1.28,0.64 1.28,1.93c1.61,-2.89 6.74,0.64 8.99,0c0.96,0 0.64,-1.28 1.28,-1.93c0.32,0 0.64,0 0.96,0c1.61,1.28 3.85,2.57 6.74,2.89c-2.57,-0.64 0.32,-0.96 0.64,-1.28c-0.64,0 -0.64,-0.32 -0.64,-0.64c0.96,0 1.93,0.32 2.89,0.32c0,0.64 0.32,0.96 0.96,0.96c0.66,0 0.66,-0.32 0.66,-0.96c0.94,0 1.61,0 2.55,0.32c-0.32,1.28 1.61,1.61 2.25,2.57c-2.57,-0.64 -5.46,-1.61 -6.42,0c10.3,2.27 21.54,5.48 32.46,10.96c0,0 0,0 0,0.32c0,0 0.32,0 0.32,0c1.93,0.96 3.85,1.93 5.8,2.89c1.26,0.64 2.23,1.28 3.51,2.27c0,0.32 0,0.64 0.64,0.64c0,0 0.32,0 0.32,0c1.28,0.96 2.57,1.61 3.87,2.57c1.28,1.95 2.57,4.52 4.82,3.87c4.82,7.39 9.96,10.3 14.13,18.03c0.32,-1.28 1.28,2.91 2.89,3.23c-2.57,-0.32 1.61,1.61 -0.96,1.28c2.25,2.25 2.89,3.21 3.21,5.8c-0.64,-1.3 -0.96,-1.63 -1.28,-0.32c-0.32,1.93 2.25,-0.34 3.21,1.61c-1.93,0 -1.28,1.28 -0.96,2.89c0.96,-0.96 0.64,-1.93 1.61,-1.61c1.3,1.28 -0.64,1.61 -0.32,2.57c0.96,-1.28 1.3,-0.64 2.57,0c-1.61,0.32 0.96,2.59 -0.94,1.61c1.28,1.63 1.59,2.59 0.94,4.2c-1.26,-1.93 -0.3,-3.21 -2.25,-2.89c3.85,3.21 1.95,10.62 6.42,11.28c-2.89,0.64 0,1.93 -1.61,2.25c1.93,0.64 0.96,3.21 3.21,3.85c-0.32,1.61 -0.96,2.59 -1.28,4.2c0.96,1.28 1.28,3.87 2.91,4.2c-0.98,0.96 -0.32,3.53 -1.3,4.5c1.3,-0.64 1.95,-0.64 2.91,0.64c-1.61,1.28 -0.32,2.59 -1.28,2.91c2.89,7.41 -0.64,22.54 0.96,28.34c-1.93,-0.98 -1.28,2.25 -2.59,2.25c2.27,0.96 0.32,2.57 1.3,4.2c-4.52,2.57 0,9.66 -6.12,11.26c0.64,4.52 -1.91,6.44 -3.85,11.28c-0.32,-0.32 -0.32,-0.64 -0.64,-0.96c-0.32,2.25 -1.61,2.57 -0.96,4.52l-1.28,-0.66c0,3.55 -5.46,5.48 -6.74,10.96c-0.32,1.61 -5.14,5.8 -6.42,8.05c-0.64,0.96 -0.32,2.57 -0.96,0.32c-0.32,0.32 -0.96,0.32 -1.28,0.32c-0.32,2.25 -2.25,2.91 -2.89,5.8c-0.64,0.32 -1.61,-0.64 -2.25,0.32c0,0.64 0.64,1.61 0.32,2.25c5.78,-0.32 5.78,-7.09 10.28,-9.33c-0.32,0.96 -2.25,1.93 -0.96,2.57c0.96,0 3.85,-3.21 2.25,-2.89c0.96,0.64 -0.96,1.28 -1.28,0.96c1.61,-1.28 0.96,-2.89 2.25,-3.23c0.96,0.66 -0.96,2.27 0.96,1.95c1.28,-2.91 2.89,-3.23 4.82,-4.84c-1.28,1.28 1.61,1.61 0.32,2.89c-4.82,0.98 -3.21,6.46 -8.03,7.11c-1.28,0.96 -0.32,1.28 -0.64,2.25c-1.61,-0.96 -5.14,4.52 -3.85,4.18c-1.61,1.63 -2.57,0.98 -3.85,1.3c-0.32,1.28 1.28,0.32 0.64,1.28c-2.25,-0.96 -5.14,2.25 -7.07,4.52l-0.98,-0.98c-0.96,2.59 -3.53,2.91 -6.4,4.84c3.19,1.61 8.67,-5.16 10.28,-4.2c0.32,0 2.89,-2.57 3.85,-3.53c4.18,-3.23 9.31,-5.8 11.24,-9.33c-0.32,0.64 -2.25,0.64 -1.28,-0.32c0.96,-0.32 1.93,0.32 2.89,0.32c5.14,-7.09 11.56,-12.89 16.38,-21.26c0.32,-0.32 0.66,-0.96 0.98,-1.61c-0.66,1.93 -1.63,3.53 -2.27,5.46c-5.12,3.55 -7.07,13.85 -13.17,15.46c0.32,3.55 -2.89,4.52 -4.5,8.69c-0.96,1.3 -1.61,-0.96 -2.57,0.66c0.96,4.5 -8.03,4.18 -7.71,8.37c-0.64,0.32 -1.61,0.64 -2.25,1.28c0,0 -0.32,0 -0.32,0c-0.32,0.32 -0.32,0.32 -0.64,0.64c-1.61,0.96 -2.89,1.93 -4.2,2.91c-4.5,2.57 -10.6,4.5 -15.42,7.09c0,0 0,-0.32 0,-0.32c-1.28,0.64 -2.89,0.32 -2.57,1.61c-0.96,0.64 -1.93,1.28 -2.89,1.93c-0.32,0 -0.32,0 -0.64,0c0,0 -0.32,-0.32 -0.64,-0.32c-0.64,0 -0.64,0 -0.96,0.32c-4.18,0.32 -9.64,2.25 -11.24,3.53c-1.61,-0.96 -9.01,0.66 -10.3,1.3c0.66,0.96 2.59,0 4.18,0c-0.96,0.32 -1.91,0.64 -2.25,1.28c-0.3,0 -0.3,0 -0.64,0c-0.3,-0.96 -1.28,0 -1.61,-0.32c0,0 0.32,0 0.32,0c-0.32,-1.28 -1.28,-1.93 -2.89,-1.61c0,0.64 0,0.96 -0.32,1.61c0.64,0 2.57,-0.96 2.57,0c-0.32,0 -0.32,0.32 0,0.32c-0.64,0.64 -1.61,0.64 -2.25,0.96c-1.28,0 -2.89,0 -4.18,0c-0.32,-0.32 -0.64,-0.32 -1.28,-0.64c-0.32,0.32 -0.96,0.32 -1.28,0.64c-1.93,0 -4.18,0.32 -5.78,0.64c0,-0.64 0,-1.28 -0.64,-1.28c-0.96,1.28 -2.89,-0.32 -5.14,0.32c-2.25,-0.64 1.28,0.96 4.5,1.61c-0.32,0.32 -0.64,0.64 -1.61,0.96m-44.99,4.52c-4.52,-4.2 -13.83,-6.12 -15.44,-9.33c-2.57,-0.32 -6.42,-5.16 -9.64,-5.8c1.61,0 0.32,-0.96 0,-1.61c-0.64,0.64 -1.28,0.96 -1.93,0.96c0,-2.59 -2.57,-4.2 -4.82,-5.8c1.61,0.96 2.89,1.61 4.82,1.93c0,-0.64 0,-1.28 0.64,-1.28c2.25,2.25 4.82,4.52 7.71,6.76c3.85,3.55 23.79,12.57 27.32,14.17c0,0 -0.64,1.28 -0.32,1.28c1.61,0.98 2.89,-0.96 3.21,1.3c-5.14,0.64 -7.07,-2.91 -11.56,-2.59m148.15,-74.74c0,0 0,0.32 0,0.32c-0.32,0 0,-0.32 0,-0.32m-129.84,-149.13c-0.32,0.32 -0.64,0.32 -0.64,0.32c0,-0.32 0.32,-0.32 0.64,-0.32m-6.1,1.61c0,0.32 0,0.32 0,0c0,0.32 0,0.32 0,0c0,0.32 0,0 0,0m-21.2,6.76c0.3,-0.32 0.3,-0.32 0.64,-0.32c-0.34,0 -0.64,0.32 -0.64,0.32m51.41,-10.62c-0.64,0 -0.96,0 -1.28,-0.32c0.32,0 0.64,0 0.96,0c0,0 0.32,0 0.32,0c0,0 0,0 0,0.32m5.78,0.64c-0.32,-0.32 -1.28,-0.64 -2.25,-0.64c0,-0.32 0.32,-0.64 0.32,-0.64c0.32,0 0.64,0 0.96,0c0,0 0.32,0 0.32,0.32c0,0 0,0 0,-0.32c0.32,0 0.32,0 0.64,0c0.32,0.64 0.64,0.96 0,1.28m10.6,0.96c-1.61,0.32 -2.57,-0.32 -4.18,-1.28c0.96,0 2.25,0.32 3.21,0.64c0.32,0 0.64,0.32 0.96,0.64m114.4,45.75c-0.64,0.32 -0.96,0.32 -1.61,-0.96c-5.14,-10.96 -14.45,-26.76 -27.96,-39.95c-13.17,-13.55 -30.83,-24.49 -46.91,-30.29c0.96,0.32 2.25,0.98 1.61,1.63c-14.13,-5.48 -27.64,-8.71 -40.49,-10c-34.71,-5.48 -71.02,1.93 -98.99,19.97c0.32,0.64 0.32,0.96 -0.62,1.61c-10.3,6.44 -24.75,17.73 -36.33,32.54c-11.56,14.81 -20.56,33.5 -24.41,50.25c0.32,-0.96 0.64,-2.57 1.28,-1.93c-8.35,33.16 -6.1,61.51 5.46,86c0.64,-0.64 -1.61,-3.87 0.32,-3.55c1.28,3.55 2.89,7.43 4.82,10.96c2.25,5.16 4.82,11.92 8.37,13.53c-9.01,-17.71 -15.12,-38 -15.76,-56.05c1.28,2.57 0.96,8.05 2.89,10.3c0.64,-12.23 -2.25,-28.67 1.93,-40.25c-0.96,6.12 -1.61,14.49 -0.96,22.86c0,6.12 2.89,23.19 4.82,24.81c-0.32,-0.32 -0.32,-1.93 0,-1.93c0.96,1.93 -1.28,2.89 0.32,3.21c0,-0.64 0.32,-0.64 0.64,-0.64c3.21,7.09 7.41,18.03 10.6,23.51c3.87,7.09 9.01,13.53 14.79,19.33c0,0.32 0.32,0.32 0.32,0.64c0.64,1.61 2.89,3.53 3.53,4.84c0.32,0.64 -0.32,1.61 0,2.25c4.82,9.01 11.88,18.05 20.56,25.11c5.48,6.44 14.15,13.23 24.75,19.01c10.28,5.48 22.18,9.98 33.1,12.57c7.71,1.93 17.04,2.25 22.82,3.55c7.71,1.61 21.2,-0.64 27.94,-1.95c40.51,-6.12 80.68,-33.82 100.91,-73.75c20.9,-40.27 20.25,-89.55 2.25,-127.23" fill='#8A76FF' fill-rule="nonzero" id="svg_2"/>
  </g>
 </g>
</svg>